<?xml version="1.0" encoding="UTF-8" standalone="no" ?>
<!DOCTYPE svg PUBLIC "-//W3C//DTD SVG 1.1//EN" "http://www.w3.org/Graphics/SVG/1.1/DTD/svg11.dtd">
<svg xmlns="http://www.w3.org/2000/svg" xmlns:xlink="http://www.w3.org/1999/xlink" version="1.1" width="2160" height="2160" viewBox="0 0 2160 2160" xml:space="preserve">
<desc>Created with Fabric.js 5.2.4</desc>
<defs>
</defs>
<g transform="matrix(1 0 0 1 1080 1080)" id="3f3befdf-d1df-489a-a9fa-cd532359283e"  >
<rect style="stroke: none; stroke-width: 1; stroke-dasharray: none; stroke-linecap: butt; stroke-dashoffset: 0; stroke-linejoin: miter; stroke-miterlimit: 4; fill: rgb(255,255,255); fill-rule: nonzero; opacity: 1; visibility: hidden;" vector-effect="non-scaling-stroke"  x="-1080" y="-1080" rx="0" ry="0" width="2160" height="2160" />
</g>
<g transform="matrix(Infinity NaN NaN Infinity 0 0)" id="b3dca55e-a9d6-4652-8496-94808c6bf0fb"  >
</g>
<g transform="matrix(NaN NaN NaN NaN 0 0)"  >
<g style=""   >
</g>
</g>
<g transform="matrix(2 0 0 2 1080 1080)"  >
<g style="" vector-effect="non-scaling-stroke"   >
		<g transform="matrix(0.13 0 0 -0.13 -309.93 -187.25)"  >
<path style="stroke: none; stroke-width: 1; stroke-dasharray: none; stroke-linecap: butt; stroke-dashoffset: 0; stroke-linejoin: miter; stroke-miterlimit: 4; fill: rgb(0,0,0); fill-rule: nonzero; opacity: 1;" vector-effect="non-scaling-stroke"  transform=" translate(-4410.35, -7351.4)" d="M 5235 9840 C 5208 9836 5167 9826 5145 9817 C 5123 9809 5078 9797 5045 9790 C 4963 9774 4915 9763 4850 9744 C 4820 9735 4723 9709 4635 9685 C 4547 9661 4435 9630 4385 9615 C 4336 9601 4277 9585 4255 9580 C 4233 9575 4177 9559 4130 9544 C 4083 9530 4029 9514 4010 9510 C 3991 9505 3946 9494 3910 9484 C 3874 9475 3820 9461 3790 9453 C 3692 9428 3613 9381 3556 9314 C 3527 9281 3498 9238 3490 9219 C 3482 9200 3473 9183 3470 9180 C 3466 9177 3444 9130 3421 9075 C 3398 9020 3368 8953 3355 8925 C 3342 8898 3319 8848 3305 8815 C 3290 8782 3260 8719 3239 8675 C 3217 8631 3200 8592 3200 8587 C 3200 8578 3132 8430 3086 8340 C 3067 8304 3047 8258 3040 8236 C 3033 8215 3017 8182 3004 8162 C 2991 8143 2980 8120 2980 8111 C 2980 8102 2969 8075 2955 8051 C 2941 8028 2930 8000 2930 7991 C 2930 7982 2919 7958 2905 7938 C 2861 7873 2819 7726 2814 7620 C 2812 7568 2806 7478 2800 7420 C 2777 7161 2768 7046 2764 6920 C 2762 6846 2756 6763 2750 6735 C 2741 6688 2728 6535 2715 6340 C 2712 6293 2705 6201 2700 6135 C 2685 5946 2680 5885 2670 5735 C 2664 5658 2655 5532 2649 5455 C 2643 5378 2637 5215 2637 5093 C 2635 4844 2640 4820 2683 4886 C 2704 4918 2713 4954 2729 5075 C 2760 5298 2797 5658 2805 5800 C 2808 5869 2815 5968 2820 6020 C 2826 6072 2834 6187 2839 6275 C 2845 6363 2858 6548 2869 6685 C 2911 7194 2921 7330 2934 7542 C 2945 7733 2950 7763 2969 7796 C 2990 7831 3041 7939 3150 8180 C 3269 8442 3382 8690 3438 8810 C 3544 9039 3627 9227 3633 9252 C 3638 9272 3652 9282 3697 9298 C 3729 9309 3781 9323 3812 9329 C 3844 9335 3883 9346 3899 9355 C 3916 9363 3938 9370 3950 9370 C 3961 9370 3996 9379 4027 9390 C 4059 9401 4096 9410 4110 9410 C 4124 9411 4153 9418 4175 9426 C 4228 9446 4343 9479 4405 9492 C 4433 9498 4471 9508 4490 9515 C 4523 9527 4548 9534 4713 9576 C 4747 9584 4790 9598 4808 9606 C 4826 9614 4851 9620 4863 9620 C 4883 9620 4929 9632 5085 9681 C 5191 9714 5251 9721 5420 9720 C 5719 9720 6151 9750 6177 9774 C 6185 9781 6186 9790 6181 9799 C 6172 9812 6152 9817 6015 9840 C 5946 9851 5310 9851 5235 9840 z" stroke-linecap="round" />
</g>
		<g transform="matrix(0.13 0 0 -0.13 -116.16 -470.39)"  >
<path style="stroke: none; stroke-width: 1; stroke-dasharray: none; stroke-linecap: butt; stroke-dashoffset: 0; stroke-linejoin: miter; stroke-miterlimit: 4; fill: rgb(0,0,0); fill-rule: nonzero; opacity: 1;" vector-effect="non-scaling-stroke"  transform=" translate(-5863.62, -9474.97)" d="M 6173 9669 C 6167 9663 6115 9654 6058 9650 C 6002 9645 5942 9637 5925 9632 C 5909 9626 5871 9619 5841 9615 C 5811 9612 5779 9605 5770 9600 C 5760 9595 5724 9584 5689 9576 C 5629 9562 5556 9544 5465 9520 C 5419 9507 5318 9487 5215 9470 C 5097 9450 5070 9441 5070 9421 C 5070 9410 5078 9399 5088 9395 C 5097 9391 5186 9384 5285 9379 C 5504 9369 5556 9365 5662 9346 C 5708 9338 5801 9326 5870 9321 C 5939 9315 6022 9306 6055 9301 C 6133 9288 6438 9270 6563 9270 C 6672 9270 6680 9277 6620 9318 C 6564 9356 6465 9378 6240 9405 C 5989 9434 5863 9454 5853 9464 C 5842 9475 5888 9510 5914 9510 C 5926 9510 5945 9517 5956 9525 C 5966 9533 5983 9540 5993 9540 C 6020 9540 6150 9599 6188 9628 C 6205 9641 6220 9659 6220 9666 C 6220 9683 6189 9685 6173 9669 z" stroke-linecap="round" />
</g>
		<g transform="matrix(0.13 0 0 -0.13 -108.64 34.97)"  >
<path style="stroke: none; stroke-width: 1; stroke-dasharray: none; stroke-linecap: butt; stroke-dashoffset: 0; stroke-linejoin: miter; stroke-miterlimit: 4; fill: rgb(0,0,0); fill-rule: nonzero; opacity: 1;" vector-effect="non-scaling-stroke"  transform=" translate(-5920, -5684.76)" d="M 6475 9179 C 6459 9174 6409 9165 6365 9159 C 6321 9154 6265 9143 6240 9135 C 6215 9127 6170 9118 6140 9115 C 6110 9111 6065 9102 6040 9095 C 6015 9087 5968 9078 5935 9074 C 5902 9071 5867 9063 5858 9059 C 5840 9050 5702 9018 5600 8999 C 5431 8969 5357 8945 5304 8905 C 5253 8867 5207 8833 5068 8737 C 5033 8713 4969 8668 4925 8637 C 4881 8606 4820 8564 4790 8543 C 4760 8523 4733 8504 4730 8500 C 4727 8497 4700 8478 4670 8458 C 4640 8437 4577 8394 4530 8361 C 4483 8328 4412 8278 4371 8250 C 4331 8222 4286 8190 4271 8179 C 4245 8160 4199 8127 4090 8053 C 4041 8019 3931 7942 3905 7923 C 3891 7912 3791 7843 3712 7790 C 3672 7763 3642 7735 3638 7720 C 3634 7706 3614 7641 3595 7575 C 3575 7509 3540 7392 3516 7315 C 3492 7238 3462 7141 3450 7100 C 3438 7059 3411 6969 3389 6900 C 3368 6831 3331 6708 3305 6625 C 3280 6543 3255 6462 3249 6445 C 3243 6429 3230 6384 3220 6345 C 3210 6307 3197 6264 3192 6250 C 3186 6236 3172 6191 3159 6150 C 3114 5996 3098 5944 3080 5890 C 3070 5860 3053 5804 3042 5765 C 3030 5727 3001 5630 2977 5550 C 2934 5410 2917 5350 2870 5170 C 2858 5123 2842 5064 2834 5039 C 2827 5014 2818 4966 2814 4934 C 2811 4901 2802 4858 2794 4837 C 2786 4817 2780 4795 2780 4790 C 2780 4781 2812 4761 2860 4740 C 2874 4734 2899 4711 2915 4690 C 2932 4668 2952 4648 2960 4646 C 2968 4643 2994 4623 3017 4603 C 3069 4556 3081 4546 3139 4502 C 3164 4482 3190 4461 3195 4455 C 3201 4448 3223 4430 3245 4414 C 3267 4399 3304 4370 3327 4350 C 3350 4331 3401 4290 3441 4260 C 3480 4230 3527 4193 3544 4179 C 3561 4165 3636 4107 3710 4051 C 3784 3994 3905 3903 3978 3847 C 4051 3791 4123 3736 4138 3725 C 4169 3702 4241 3647 4348 3566 C 4426 3506 4483 3477 4545 3466 C 4567 3462 4590 3455 4595 3450 C 4601 3446 4631 3434 4662 3425 C 4694 3416 4722 3405 4725 3400 C 4728 3396 4749 3389 4773 3385 C 4796 3381 4824 3372 4836 3365 C 4848 3357 4874 3348 4894 3345 C 4914 3341 4947 3329 4967 3319 C 4988 3308 5011 3300 5020 3300 C 5028 3299 5053 3291 5075 3280 C 5097 3269 5122 3261 5131 3260 C 5140 3260 5190 3244 5241 3224 C 5293 3205 5355 3182 5380 3175 C 5476 3145 5527 3128 5568 3109 C 5591 3099 5618 3090 5628 3090 C 5637 3090 5662 3081 5683 3070 C 5703 3059 5729 3050 5741 3050 C 5753 3050 5776 3043 5793 3036 C 5828 3020 5919 2987 5990 2965 C 6069 2941 6134 2918 6178 2899 C 6201 2888 6227 2880 6236 2880 C 6244 2880 6268 2871 6290 2860 C 6312 2849 6340 2840 6352 2840 C 6365 2839 6393 2831 6415 2820 C 6437 2809 6462 2801 6470 2800 C 6478 2800 6501 2791 6521 2781 C 6541 2770 6575 2758 6596 2754 C 6618 2751 6640 2743 6647 2738 C 6654 2733 6681 2722 6707 2715 C 6771 2697 6871 2662 6893 2649 C 6903 2644 6930 2635 6953 2630 C 6976 2626 7031 2607 7075 2590 C 7119 2573 7175 2554 7200 2548 C 7225 2542 7250 2534 7256 2529 C 7263 2524 7290 2513 7316 2506 C 7343 2498 7397 2480 7435 2465 C 7474 2450 7530 2431 7560 2423 C 7590 2415 7620 2404 7625 2400 C 7631 2396 7651 2389 7670 2385 C 7689 2381 7718 2371 7734 2363 C 7749 2355 7783 2342 7809 2335 C 7834 2328 7869 2318 7885 2312 C 7902 2306 7947 2293 7985 2281 C 8024 2270 8084 2251 8119 2240 C 8155 2229 8208 2220 8237 2220 C 8279 2220 8292 2216 8302 2200 C 8317 2177 8340 2173 8340 2194 C 8340 2242 8166 2347 8000 2398 C 7964 2409 7917 2425 7895 2434 C 7772 2480 7680 2512 7645 2521 C 7623 2526 7589 2538 7570 2547 C 7551 2556 7522 2567 7505 2571 C 7489 2575 7437 2593 7390 2610 C 7252 2661 7168 2690 7115 2705 C 7088 2713 7007 2740 6935 2766 C 6665 2863 6612 2882 6495 2920 C 6372 2960 6363 2964 6250 3006 C 6214 3020 6169 3035 6150 3040 C 6112 3050 5972 3098 5815 3155 C 5717 3190 5591 3235 5335 3324 C 5264 3349 5196 3369 5184 3370 C 5173 3370 5160 3374 5154 3379 C 5143 3390 4954 3458 4895 3472 C 4873 3478 4840 3489 4822 3496 C 4804 3504 4779 3510 4766 3510 C 4753 3510 4737 3517 4730 3525 C 4723 3533 4709 3540 4699 3540 C 4689 3540 4628 3564 4563 3593 C 4447 3645 4320 3725 4230 3803 C 4205 3824 4169 3850 4150 3860 C 4131 3870 4106 3887 4096 3899 C 4085 3911 4050 3939 4017 3962 C 3984 3986 3943 4017 3925 4033 C 3907 4048 3889 4060 3885 4060 C 3881 4060 3864 4071 3846 4085 C 3729 4181 3691 4210 3685 4210 C 3681 4210 3655 4230 3627 4255 C 3598 4280 3567 4300 3557 4300 C 3547 4300 3537 4306 3534 4314 C 3531 4321 3503 4345 3472 4366 C 3441 4387 3402 4416 3385 4431 C 3369 4446 3315 4485 3265 4519 C 3216 4552 3148 4598 3115 4621 C 3082 4644 3021 4680 2980 4702 C 2939 4724 2900 4748 2895 4755 C 2889 4762 2876 4769 2865 4772 C 2837 4777 2843 4814 2885 4903 C 2935 5009 2961 5080 2954 5091 C 2951 5096 2960 5123 2974 5150 C 2988 5177 3000 5209 3000 5220 C 3000 5232 3015 5282 3034 5333 C 3052 5384 3075 5454 3085 5490 C 3095 5526 3111 5580 3120 5610 C 3130 5640 3150 5706 3164 5755 C 3179 5805 3196 5859 3201 5875 C 3214 5913 3244 6008 3282 6135 C 3299 6190 3316 6245 3321 6257 C 3325 6269 3336 6308 3345 6342 C 3354 6377 3369 6428 3379 6455 C 3390 6483 3417 6568 3439 6645 C 3462 6722 3487 6805 3496 6830 C 3504 6855 3517 6900 3524 6930 C 3532 6960 3549 7019 3563 7060 C 3605 7186 3647 7323 3655 7360 C 3659 7379 3666 7400 3671 7406 C 3675 7411 3686 7443 3695 7475 C 3714 7550 3739 7617 3762 7655 C 3783 7690 3881 7768 3977 7825 C 4040 7863 4213 7985 4254 8021 C 4277 8041 4318 8070 4345 8085 C 4373 8101 4429 8139 4470 8170 C 4511 8201 4556 8233 4570 8240 C 4584 8247 4610 8266 4628 8281 C 4646 8297 4667 8310 4675 8310 C 4683 8310 4694 8319 4700 8330 C 4706 8341 4715 8350 4720 8350 C 4725 8350 4758 8370 4792 8395 C 4827 8420 4909 8477 4975 8522 C 5041 8567 5114 8618 5137 8634 C 5186 8670 5270 8730 5320 8765 C 5412 8830 5569 8877 5678 8872 C 5703 8870 5710 8866 5710 8850 C 5710 8837 5703 8830 5691 8830 C 5668 8830 5656 8802 5671 8784 C 5677 8776 5679 8759 5676 8745 C 5671 8727 5674 8718 5685 8714 C 5693 8710 5700 8702 5700 8695 C 5700 8672 5784 8613 5914 8546 C 5985 8510 6048 8480 6053 8480 C 6058 8480 6100 8462 6146 8440 C 6191 8418 6263 8390 6304 8380 C 6370 8362 6391 8361 6467 8370 C 6516 8376 6600 8385 6655 8390 C 6710 8396 6771 8405 6790 8410 C 6809 8416 6848 8423 6875 8425 C 6987 8435 7037 8442 7085 8455 C 7182 8482 7385 8475 7421 8443 C 7437 8430 7465 8415 7735 8276 C 7801 8242 7873 8203 7895 8189 C 7917 8175 7961 8153 7993 8141 C 8024 8128 8053 8113 8056 8109 C 8059 8104 8091 8086 8128 8069 C 8164 8053 8197 8035 8200 8031 C 8206 8020 8430 7910 8445 7910 C 8452 7910 8465 7901 8475 7890 C 8485 7879 8501 7870 8510 7870 C 8519 7870 8556 7852 8593 7830 C 8629 7808 8664 7790 8670 7790 C 8676 7790 8698 7781 8718 7771 C 8820 7719 8880 7697 8931 7696 C 8982 7695 9012 7711 8973 7719 C 8963 7721 8947 7731 8937 7741 C 8927 7751 8913 7760 8905 7760 C 8896 7760 8882 7769 8872 7781 C 8863 7792 8842 7808 8825 7816 C 8809 7823 8786 7835 8775 7842 C 8670 7910 8622 7940 8616 7940 C 8613 7940 8585 7955 8554 7973 C 8477 8017 8353 8085 8305 8110 C 8283 8121 8258 8134 8250 8140 C 8242 8145 8224 8155 8210 8161 C 8196 8166 8167 8182 8145 8195 C 8123 8208 8069 8238 8025 8260 C 7981 8283 7909 8320 7865 8344 C 7821 8367 7733 8414 7670 8447 C 7532 8519 7450 8564 7392 8597 L 7350 8622 L 7267 8605 C 7222 8596 7138 8584 7080 8579 C 7022 8574 6946 8563 6910 8555 C 6874 8547 6807 8538 6760 8534 C 6713 8531 6639 8520 6595 8510 C 6551 8500 6473 8489 6423 8485 C 6342 8478 6327 8480 6303 8496 C 6272 8517 6169 8569 6158 8570 C 6154 8570 6107 8591 6053 8616 C 5904 8685 5901 8686 5805 8717 C 5723 8742 5715 8747 5715 8770 C 5715 8801 5732 8805 5965 8820 C 6059 8827 6167 8838 6205 8846 C 6244 8854 6329 8865 6395 8870 C 6461 8875 6529 8883 6545 8889 C 6562 8894 6629 8904 6695 8910 C 6761 8915 6840 8926 6870 8934 C 6900 8942 6968 8951 7020 8955 C 7072 8958 7144 8968 7180 8976 C 7215 8984 7270 8992 7301 8993 C 7347 8995 7361 8991 7381 8972 C 7394 8960 7468 8903 7545 8846 C 7622 8788 7710 8723 7740 8700 C 7877 8597 8077 8449 8160 8390 C 8210 8354 8274 8307 8303 8285 C 8332 8263 8373 8232 8395 8217 C 8417 8202 8476 8160 8525 8125 C 8602 8069 8669 8023 8776 7950 C 8788 7942 8824 7920 8856 7901 C 8889 7882 8921 7860 8927 7852 C 8946 7829 9060 7789 9060 7805 C 9060 7829 8884 7996 8771 8080 C 8655 8166 8577 8226 8490 8298 C 8471 8314 8442 8334 8425 8343 C 8409 8351 8384 8370 8371 8384 C 8357 8398 8341 8410 8335 8410 C 8328 8410 8281 8444 8230 8485 C 8179 8526 8132 8560 8126 8560 C 8120 8560 8110 8568 8104 8578 C 8098 8587 8053 8622 8005 8655 C 7957 8688 7905 8726 7891 8740 C 7877 8754 7847 8777 7825 8790 C 7786 8814 7709 8871 7640 8928 C 7552 9001 7433 9074 7380 9088 C 7307 9108 7222 9110 7130 9095 C 6958 9066 6829 9049 6640 9029 C 6593 9025 6534 9018 6507 9014 C 6409 9001 6410 9033 6508 9070 C 6540 9082 6573 9100 6583 9111 C 6593 9121 6605 9130 6610 9130 C 6621 9130 6660 9170 6660 9182 C 6660 9193 6512 9191 6475 9179 z M 6400 9022 C 6400 9007 6352 8987 6334 8994 C 6313 9002 6326 9017 6360 9023 C 6374 9025 6388 9028 6393 9029 C 6397 9029 6400 9026 6400 9022 z" stroke-linecap="round" />
</g>
		<g transform="matrix(0.13 0 0 -0.13 189.72 -220.51)"  >
<path style="stroke: none; stroke-width: 1; stroke-dasharray: none; stroke-linecap: butt; stroke-dashoffset: 0; stroke-linejoin: miter; stroke-miterlimit: 4; fill: rgb(0,0,0); fill-rule: nonzero; opacity: 1;" vector-effect="non-scaling-stroke"  transform=" translate(-8157.69, -7600.86)" d="M 7925 7840 C 7881 7813 7821 7779 7791 7765 C 7762 7750 7711 7712 7678 7681 C 7582 7590 7581 7524 7676 7457 C 7744 7410 7833 7392 8315 7330 C 8534 7302 8616 7307 8661 7351 C 8677 7366 8690 7382 8690 7385 C 8690 7388 8666 7390 8637 7390 C 8607 7390 8559 7398 8529 7409 C 8499 7419 8437 7433 8390 7439 C 8343 7446 8280 7457 8250 7465 C 8220 7473 8152 7482 8100 7485 C 8048 7489 7980 7499 7950 7506 C 7918 7514 7844 7520 7768 7520 C 7649 7520 7640 7521 7640 7539 C 7640 7563 7695 7605 7740 7615 C 7759 7619 7780 7626 7785 7630 C 7791 7634 7828 7655 7868 7676 C 7989 7741 8001 7748 8024 7768 C 8078 7817 8116 7812 8185 7746 C 8202 7731 8228 7711 8243 7704 C 8258 7696 8294 7671 8323 7650 C 8352 7628 8380 7610 8386 7610 C 8392 7610 8403 7603 8410 7595 C 8417 7587 8445 7566 8474 7550 C 8502 7533 8532 7515 8540 7510 C 8572 7491 8687 7440 8698 7440 C 8705 7440 8710 7451 8710 7465 C 8710 7502 8592 7613 8476 7685 C 8458 7696 8421 7724 8394 7746 C 8344 7788 8238 7855 8187 7878 C 8172 7884 8124 7890 8082 7889 C 8009 7888 8001 7886 7925 7840 z" stroke-linecap="round" />
</g>
		<g transform="matrix(0.13 0 0 -0.13 242.15 -80.31)"  >
<path style="stroke: none; stroke-width: 1; stroke-dasharray: none; stroke-linecap: butt; stroke-dashoffset: 0; stroke-linejoin: miter; stroke-miterlimit: 4; fill: rgb(0,0,0); fill-rule: nonzero; opacity: 1;" vector-effect="non-scaling-stroke"  transform=" translate(-8550.97, -6549.34)" d="M 7280 7425 C 7266 7417 7247 7411 7237 7410 C 7215 7410 7049 7246 6955 7131 C 6916 7084 6865 7026 6842 7001 C 6818 6976 6787 6936 6773 6913 C 6759 6889 6744 6870 6739 6870 C 6734 6870 6721 6851 6709 6828 C 6683 6778 6687 6716 6719 6672 C 6748 6630 6849 6554 6947 6497 C 6992 6471 7032 6450 7035 6450 C 7039 6450 7056 6439 7074 6425 C 7092 6411 7111 6400 7116 6400 C 7122 6400 7157 6379 7195 6354 C 7234 6328 7301 6290 7346 6269 C 7473 6208 7511 6212 7770 6313 C 7806 6327 7873 6356 7920 6378 C 7967 6400 8036 6427 8073 6439 C 8109 6450 8150 6466 8162 6474 C 8175 6482 8212 6497 8246 6508 C 8279 6519 8325 6537 8348 6549 C 8371 6560 8397 6570 8408 6570 C 8418 6570 8430 6574 8436 6578 C 8441 6583 8477 6599 8515 6615 C 8554 6630 8590 6646 8595 6650 C 8613 6663 8787 6730 8803 6730 C 8827 6730 8837 6709 8843 6645 C 8851 6550 8900 6485 8993 6446 C 9014 6438 9030 6424 9030 6415 C 9030 6392 8927 6253 8843 6164 C 8804 6123 8684 5978 8631 5910 C 8581 5845 8582 5706 8632 5765 C 8639 5774 8692 5829 8750 5888 C 8808 5947 8891 6038 8935 6090 C 8978 6142 9018 6190 9024 6195 C 9030 6201 9068 6244 9108 6292 C 9149 6340 9208 6404 9241 6434 C 9310 6498 9317 6526 9268 6534 C 9231 6540 9136 6549 9013 6558 C 8968 6562 8929 6568 8925 6571 C 8922 6575 8928 6595 8939 6616 C 8951 6637 8960 6661 8960 6668 C 8960 6693 9023 6875 9037 6892 C 9045 6901 9050 6921 9048 6937 C 9046 6959 9041 6965 9022 6963 C 9000 6960 8957 6942 8910 6915 C 8875 6895 8795 6860 8785 6860 C 8780 6860 8758 6851 8736 6841 C 8633 6793 8576 6770 8564 6770 C 8556 6770 8533 6761 8513 6750 C 8492 6739 8470 6730 8463 6730 C 8457 6730 8430 6719 8404 6705 C 8378 6691 8350 6680 8341 6680 C 8332 6680 8316 6673 8306 6665 C 8295 6657 8279 6650 8271 6650 C 8262 6650 8233 6639 8205 6625 C 8178 6612 8151 6600 8145 6600 C 8140 6600 8117 6591 8095 6580 C 8073 6569 8049 6561 8042 6560 C 8036 6560 8013 6551 7993 6540 C 7972 6529 7948 6520 7940 6520 C 7932 6520 7912 6511 7895 6500 C 7879 6489 7858 6480 7850 6480 C 7842 6480 7819 6472 7800 6462 C 7781 6451 7753 6440 7738 6436 C 7723 6433 7671 6411 7623 6388 C 7513 6336 7453 6331 7400 6371 C 7381 6386 7323 6422 7272 6451 C 7220 6481 7162 6515 7142 6527 C 7122 6539 7095 6554 7082 6559 C 7070 6565 7036 6585 7007 6603 C 6945 6643 6831 6700 6813 6700 C 6807 6700 6792 6712 6780 6727 L 6759 6754 L 6825 6813 C 6861 6845 6924 6913 6967 6963 C 7009 7014 7048 7060 7054 7065 C 7069 7079 7208 7245 7249 7298 C 7289 7349 7316 7352 7363 7310 C 7382 7294 7400 7280 7404 7280 C 7407 7280 7438 7261 7472 7238 C 7507 7215 7553 7185 7575 7172 C 7597 7158 7627 7139 7642 7128 C 7657 7118 7672 7110 7675 7110 C 7678 7110 7693 7102 7708 7091 C 7862 6986 7874 6980 7936 6981 C 7968 6981 8033 6987 8080 6995 C 8127 7003 8224 7016 8295 7025 C 8367 7033 8445 7045 8469 7051 C 8494 7056 8570 7065 8639 7070 C 8709 7074 8777 7083 8791 7088 C 8805 7094 8859 7101 8911 7105 C 8963 7108 9052 7120 9110 7130 C 9168 7140 9256 7153 9305 7159 C 9406 7169 9423 7165 9500 7106 C 9525 7087 9550 7071 9555 7071 C 9561 7070 9594 7050 9630 7025 C 9666 7000 9698 6980 9702 6980 C 9706 6980 9737 6961 9772 6938 C 9807 6915 9861 6883 9893 6867 C 9966 6830 9978 6808 9956 6745 C 9933 6675 9916 6536 9929 6513 C 9934 6502 9967 6479 10002 6461 C 10037 6443 10088 6413 10115 6395 C 10196 6343 10233 6323 10262 6316 C 10290 6310 10350 6258 10350 6242 C 10350 6230 10315 6220 10271 6220 C 10253 6220 10217 6213 10191 6205 C 10166 6197 10123 6183 10095 6174 C 10068 6166 10018 6152 9985 6145 C 9928 6132 9859 6111 9795 6088 C 9779 6082 9736 6070 9700 6060 C 9664 6051 9625 6038 9615 6033 C 9604 6027 9576 6020 9552 6016 C 9528 6013 9501 6006 9492 6001 C 9465 5986 9277 5930 9257 5930 C 9247 5930 9227 5924 9212 5916 C 9197 5908 9162 5897 9135 5891 C 9080 5880 8974 5846 8922 5824 C 8904 5816 8880 5810 8869 5810 C 8859 5810 8826 5798 8797 5782 C 8769 5767 8719 5744 8688 5731 C 8656 5718 8630 5704 8630 5700 C 8630 5696 8647 5685 8669 5676 C 8703 5660 8717 5659 8786 5670 C 8830 5676 8883 5687 8905 5694 C 8927 5702 8965 5713 8990 5720 C 9015 5727 9056 5739 9083 5746 C 9109 5754 9151 5766 9178 5774 C 9204 5781 9257 5797 9295 5808 C 9334 5820 9412 5843 9470 5860 C 9672 5919 9745 5941 9795 5960 C 9823 5971 9855 5980 9867 5980 C 9879 5980 9919 5991 9957 6004 C 10040 6033 10162 6070 10176 6070 C 10182 6070 10205 6079 10228 6090 C 10250 6101 10274 6110 10281 6110 C 10300 6110 10410 6229 10410 6250 C 10410 6260 10406 6279 10401 6292 C 10390 6322 10264 6447 10225 6467 C 10209 6476 10193 6486 10190 6491 C 10187 6495 10163 6508 10137 6519 C 10105 6533 10090 6545 10090 6558 C 10090 6568 10084 6582 10078 6588 C 10069 6597 10066 6628 10068 6689 C 10070 6738 10067 6795 10061 6817 C 10046 6873 9935 6982 9824 7049 C 9775 7079 9701 7125 9660 7151 C 9619 7177 9545 7218 9495 7241 C 9406 7283 9406 7283 9315 7277 C 9228 7271 9144 7261 8995 7239 C 8957 7233 8903 7227 8875 7225 C 8848 7223 8812 7217 8797 7211 C 8781 7205 8758 7203 8744 7206 C 8731 7209 8699 7207 8673 7201 C 8646 7194 8582 7185 8530 7180 C 8417 7169 8316 7157 8160 7135 C 8097 7126 8015 7116 7978 7114 C 7913 7110 7907 7112 7838 7151 C 7798 7173 7744 7207 7717 7226 C 7691 7245 7666 7260 7662 7260 C 7657 7260 7633 7275 7609 7294 C 7557 7334 7374 7428 7333 7435 C 7318 7438 7294 7434 7280 7425 z" stroke-linecap="round" />
</g>
		<g transform="matrix(0.13 0 0 -0.13 -234.89 3.98)"  >
<path style="stroke: none; stroke-width: 1; stroke-dasharray: none; stroke-linecap: butt; stroke-dashoffset: 0; stroke-linejoin: miter; stroke-miterlimit: 4; fill: rgb(0,0,0); fill-rule: nonzero; opacity: 1;" vector-effect="non-scaling-stroke"  transform=" translate(-4973.14, -5917.2)" d="M 4745 6957 C 4700 6936 4625 6851 4608 6800 C 4599 6775 4580 6708 4566 6650 C 4541 6550 4513 6452 4484 6365 C 4477 6343 4466 6298 4460 6265 C 4453 6232 4437 6174 4424 6135 C 4412 6097 4391 6029 4379 5985 C 4367 5941 4344 5856 4328 5795 C 4281 5622 4275 5570 4296 5524 C 4319 5474 4413 5381 4465 5356 C 4487 5345 4516 5326 4530 5314 C 4552 5295 4668 5228 4809 5153 C 4834 5140 4861 5124 4869 5116 C 4878 5108 4905 5092 4930 5080 C 4955 5069 5004 5041 5040 5018 C 5149 4949 5291 4877 5335 4869 C 5409 4855 5519 4897 5577 4961 C 5666 5059 5672 5074 5653 5141 C 5633 5210 5497 5364 5385 5445 C 5363 5461 5327 5491 5305 5511 C 5283 5532 5251 5559 5233 5572 C 5172 5617 5005 5753 4988 5772 C 4952 5812 4970 5914 5048 6115 C 5082 6201 5110 6201 5158 6118 C 5197 6050 5294 5940 5334 5918 C 5387 5889 5418 5895 5465 5944 C 5526 6007 5554 6076 5584 6235 C 5599 6312 5615 6398 5620 6425 C 5647 6569 5642 6585 5551 6673 C 5513 6710 5475 6740 5467 6740 C 5452 6740 5418 6753 5270 6815 C 5240 6828 5179 6850 5135 6865 C 5091 6879 5046 6895 5035 6899 C 4864 6968 4798 6981 4745 6957 z M 4855 6846 C 4937 6807 5027 6770 5040 6770 C 5046 6770 5064 6764 5078 6756 C 5093 6748 5125 6735 5150 6727 C 5220 6704 5282 6681 5315 6666 C 5340 6654 5414 6631 5507 6605 C 5540 6596 5545 6564 5521 6511 C 5490 6442 5450 6223 5443 6088 C 5437 5961 5432 5952 5387 5964 C 5371 5968 5351 5998 5312 6077 C 5283 6137 5230 6232 5195 6290 C 5159 6348 5123 6415 5114 6440 C 5096 6489 5055 6534 5038 6524 C 5022 6514 5000 6454 5000 6420 C 5000 6403 4989 6355 4975 6312 C 4846 5905 4824 5841 4803 5818 C 4778 5790 4795 5755 4853 5716 C 4881 5697 4964 5633 5035 5574 C 5107 5516 5221 5422 5289 5366 C 5436 5247 5580 5107 5580 5085 C 5580 5076 5558 5060 5528 5046 C 5499 5033 5460 5010 5441 4996 C 5390 4958 5360 4962 5267 5024 C 5222 5053 5167 5087 5145 5099 C 5123 5111 5089 5130 5070 5142 C 5051 5153 5014 5174 4989 5189 C 4940 5217 4763 5320 4702 5357 C 4682 5369 4655 5384 4642 5389 C 4630 5395 4596 5415 4567 5433 C 4518 5464 4446 5500 4407 5514 C 4376 5524 4376 5549 4408 5643 C 4454 5781 4475 5851 4514 6000 C 4534 6074 4579 6241 4615 6370 C 4715 6728 4730 6787 4730 6823 C 4730 6842 4733 6860 4737 6863 C 4751 6877 4807 6869 4855 6846 z" stroke-linecap="round" />
</g>
		<g transform="matrix(0.13 0 0 -0.13 367.97 -107.92)"  >
<path style="stroke: none; stroke-width: 1; stroke-dasharray: none; stroke-linecap: butt; stroke-dashoffset: 0; stroke-linejoin: miter; stroke-miterlimit: 4; fill: rgb(0,0,0); fill-rule: nonzero; opacity: 1;" vector-effect="non-scaling-stroke"  transform=" translate(-9494.57, -6756.39)" d="M 9290 6888 C 9249 6820 9272 6786 9365 6775 C 9439 6766 9462 6753 9609 6639 C 9675 6588 9712 6579 9718 6613 C 9722 6631 9713 6640 9529 6816 C 9430 6912 9416 6920 9356 6920 C 9315 6920 9308 6917 9290 6888 z" stroke-linecap="round" />
</g>
		<g transform="matrix(0.13 0 0 -0.13 319.69 244.92)"  >
<path style="stroke: none; stroke-width: 1; stroke-dasharray: none; stroke-linecap: butt; stroke-dashoffset: 0; stroke-linejoin: miter; stroke-miterlimit: 4; fill: rgb(0,0,0); fill-rule: nonzero; opacity: 1;" vector-effect="non-scaling-stroke"  transform=" translate(-9132.5, -4110.13)" d="M 10596 6055 C 10581 6047 10560 6040 10551 6040 C 10542 6040 10515 6030 10490 6018 C 10465 6007 10405 5983 10355 5965 C 10205 5911 10135 5883 10102 5866 C 10085 5857 10065 5850 10058 5850 C 10045 5850 9939 5807 9843 5764 C 9815 5751 9785 5740 9777 5740 C 9769 5740 9707 5718 9639 5691 C 9571 5664 9484 5630 9445 5616 C 9407 5601 9350 5576 9319 5560 C 9288 5543 9253 5530 9241 5530 C 9229 5530 9206 5523 9191 5515 C 9175 5507 9145 5494 9124 5487 C 9070 5468 8884 5392 8835 5370 C 8813 5360 8782 5349 8767 5346 C 8736 5339 8519 5255 8492 5240 C 8465 5225 8348 5180 8335 5180 C 8329 5180 8306 5171 8285 5160 C 8245 5139 8233 5134 8035 5062 C 7975 5040 7909 5016 7890 5007 C 7871 4999 7837 4985 7815 4977 C 7646 4912 7598 4891 7548 4857 C 7516 4836 7490 4815 7490 4810 C 7490 4806 7476 4785 7459 4764 C 7410 4702 7413 4688 7594 4220 C 7625 4140 7661 4050 7674 4020 C 7687 3990 7703 3947 7710 3925 C 7717 3903 7744 3837 7771 3779 C 7798 3721 7820 3665 7820 3654 C 7820 3644 7827 3626 7835 3616 C 7843 3605 7850 3584 7850 3570 C 7850 3556 7854 3540 7859 3534 C 7868 3524 7901 3447 7951 3315 C 8061 3026 8081 2978 8115 2905 C 8128 2878 8146 2828 8156 2795 C 8165 2762 8189 2699 8208 2655 C 8227 2611 8255 2541 8271 2500 C 8316 2378 8364 2266 8380 2243 C 8407 2205 8501 2150 8539 2150 C 8571 2150 8732 2223 8798 2269 C 8849 2303 8905 2337 9015 2400 C 9156 2480 9280 2554 9352 2599 C 9383 2619 9441 2655 9480 2680 C 9596 2751 9674 2831 9695 2898 C 9704 2928 9686 2926 9672 2895 C 9664 2877 9652 2870 9633 2870 C 9617 2870 9594 2863 9580 2855 C 9566 2847 9548 2838 9540 2835 C 9499 2817 9339 2734 9300 2709 C 9275 2693 9242 2673 9225 2665 C 9209 2656 9179 2639 9159 2627 C 9138 2615 9089 2586 9049 2562 C 9008 2538 8962 2510 8945 2500 C 8929 2489 8899 2471 8880 2460 C 8861 2449 8828 2429 8808 2417 C 8788 2405 8741 2377 8703 2355 C 8627 2311 8629 2313 8579 2270 C 8515 2217 8478 2234 8460 2325 C 8453 2358 8441 2394 8434 2405 C 8426 2416 8420 2433 8420 2443 C 8420 2460 8388 2539 8355 2603 C 8347 2619 8340 2637 8340 2643 C 8340 2649 8331 2672 8321 2694 C 8302 2733 8294 2755 8255 2860 C 8246 2885 8233 2919 8225 2937 C 8217 2954 8210 2974 8210 2982 C 8210 2989 8201 3012 8190 3033 C 8179 3053 8170 3076 8170 3083 C 8170 3090 8162 3111 8151 3130 C 8141 3149 8130 3179 8126 3197 C 8122 3214 8110 3245 8099 3266 C 8089 3287 8080 3311 8080 3320 C 8080 3329 8074 3344 8066 3355 C 8059 3366 8047 3393 8040 3415 C 8033 3437 8021 3464 8014 3475 C 8006 3486 8000 3503 8000 3513 C 8000 3524 7994 3546 7986 3563 C 7931 3686 7920 3714 7920 3724 C 7920 3731 7911 3752 7901 3773 C 7891 3793 7879 3822 7876 3837 C 7872 3853 7861 3883 7851 3905 C 7807 4000 7790 4042 7790 4056 C 7790 4065 7783 4084 7775 4098 C 7767 4113 7747 4163 7730 4210 C 7713 4257 7692 4308 7684 4323 C 7676 4339 7670 4356 7670 4362 C 7670 4372 7635 4458 7599 4536 C 7589 4559 7580 4583 7580 4591 C 7580 4599 7566 4625 7550 4650 C 7534 4675 7520 4702 7520 4711 C 7520 4736 7551 4757 7600 4765 C 7625 4769 7661 4781 7680 4791 C 7699 4802 7720 4810 7727 4810 C 7734 4810 7757 4819 7777 4830 C 7798 4841 7824 4850 7835 4850 C 7846 4850 7864 4856 7875 4864 C 7886 4871 7913 4883 7935 4890 C 7957 4897 7984 4909 7995 4916 C 8006 4924 8021 4930 8030 4930 C 8039 4930 8063 4939 8085 4950 C 8107 4961 8131 4970 8140 4970 C 8148 4970 8168 4977 8185 4986 C 8228 5008 8359 5060 8373 5060 C 8380 5060 8402 5069 8423 5080 C 8443 5091 8466 5100 8472 5100 C 8479 5100 8508 5112 8535 5125 C 8563 5139 8592 5150 8600 5150 C 8609 5150 8624 5156 8635 5164 C 8646 5171 8671 5181 8690 5185 C 8709 5189 8730 5196 8735 5200 C 8741 5204 8783 5222 8830 5240 C 8877 5257 8929 5278 8945 5285 C 8962 5293 8995 5307 9020 5316 C 9077 5336 9147 5363 9180 5377 C 9194 5383 9232 5398 9265 5410 C 9298 5423 9348 5444 9377 5457 C 9405 5469 9436 5480 9444 5480 C 9453 5480 9477 5489 9497 5500 C 9518 5511 9542 5520 9550 5520 C 9558 5520 9579 5529 9595 5540 C 9612 5551 9632 5560 9640 5560 C 9649 5560 9673 5569 9695 5580 C 9717 5591 9741 5600 9750 5600 C 9758 5600 9778 5607 9795 5616 C 9838 5638 9970 5690 9984 5690 C 9990 5690 10013 5699 10035 5710 C 10057 5721 10081 5730 10090 5730 C 10099 5730 10115 5737 10128 5745 C 10140 5754 10169 5767 10192 5775 C 10262 5797 10323 5820 10355 5834 C 10423 5866 10508 5900 10518 5900 C 10537 5900 10617 5940 10662 5973 C 10698 5998 10763 6001 10768 5977 C 10770 5967 10765 5951 10757 5942 C 10739 5921 10692 5809 10679 5755 C 10674 5733 10663 5701 10655 5683 C 10647 5666 10640 5641 10640 5628 C 10639 5616 10632 5587 10624 5565 C 10615 5543 10602 5500 10595 5470 C 10587 5440 10573 5386 10564 5350 C 10555 5314 10542 5265 10534 5240 C 10527 5215 10517 5175 10514 5150 C 10510 5125 10502 5094 10495 5080 C 10488 5066 10479 5039 10476 5020 C 10472 5001 10461 4956 10451 4920 C 10441 4884 10428 4833 10422 4805 C 10404 4720 10373 4604 10362 4584 C 10357 4573 10349 4540 10345 4510 C 10341 4480 10332 4444 10325 4430 C 10318 4416 10309 4378 10305 4345 C 10301 4312 10292 4273 10284 4258 C 10277 4244 10267 4205 10264 4173 C 10260 4141 10251 4098 10243 4076 C 10236 4055 10230 4012 10230 3980 C 10230 3918 10223 3909 10180 3920 C 10157 3925 10155 3931 10148 4010 C 10131 4232 10120 4331 10112 4347 C 10107 4357 10097 4408 10091 4461 C 10085 4514 10074 4575 10067 4596 C 10059 4617 10050 4668 10046 4709 C 10042 4749 10034 4794 10028 4809 C 10023 4823 10014 4873 10010 4919 C 10005 4965 9994 5032 9986 5069 C 9954 5208 9937 5308 9931 5397 C 9928 5447 9922 5492 9918 5495 C 9909 5504 9839 5469 9785 5430 C 9763 5414 9726 5391 9703 5379 C 9680 5368 9644 5347 9623 5333 C 9603 5319 9577 5304 9566 5299 C 9554 5293 9529 5279 9508 5267 C 9488 5255 9446 5230 9413 5212 C 9381 5194 9348 5175 9340 5170 C 9332 5165 9309 5151 9290 5140 C 9271 5128 9237 5108 9215 5095 C 9193 5082 9164 5066 9150 5060 C 9137 5054 9119 5043 9112 5037 C 9104 5030 9069 5009 9035 4990 C 8971 4954 8845 4881 8784 4845 C 8718 4805 8645 4763 8630 4756 C 8622 4752 8599 4739 8578 4727 C 8558 4715 8492 4676 8431 4640 C 8369 4604 8302 4565 8282 4553 C 8262 4541 8216 4518 8181 4501 L 8117 4470 L 8124 4410 C 8128 4377 8138 4331 8146 4307 C 8154 4284 8165 4231 8171 4190 C 8176 4149 8187 4084 8195 4045 C 8203 4007 8213 3944 8218 3905 C 8231 3815 8255 3674 8275 3585 C 8284 3547 8294 3479 8299 3435 C 8304 3391 8313 3344 8318 3330 C 8323 3316 8330 3276 8334 3240 C 8337 3204 8349 3137 8360 3090 C 8381 2998 8418 2793 8422 2745 L 8425 2715 L 8488 2717 C 8522 2718 8572 2725 8598 2734 C 8624 2742 8674 2752 8710 2755 C 8746 2758 8795 2767 8820 2775 C 8845 2782 8885 2791 8910 2795 C 8935 2798 8998 2809 9050 2820 C 9102 2830 9172 2843 9205 2849 C 9315 2867 9450 2899 9478 2914 C 9493 2921 9530 2931 9560 2935 C 9630 2944 9636 2948 9613 2971 C 9603 2981 9590 2995 9584 3003 C 9568 3023 9437 3015 9265 2984 C 9188 2971 9074 2950 9011 2939 C 8948 2928 8893 2917 8889 2914 C 8884 2911 8853 2905 8818 2900 C 8783 2896 8737 2887 8715 2881 C 8671 2869 8571 2866 8546 2876 C 8525 2884 8517 2916 8469 3191 C 8447 3320 8424 3445 8419 3470 C 8413 3495 8403 3560 8395 3615 C 8387 3670 8374 3749 8366 3790 C 8358 3831 8345 3910 8336 3965 C 8327 4020 8311 4105 8300 4153 C 8289 4202 8282 4245 8285 4250 C 8288 4254 8285 4282 8280 4313 C 8270 4364 8271 4370 8296 4408 C 8311 4431 8333 4451 8348 4455 C 8378 4462 8444 4501 8679 4648 C 8699 4660 8733 4679 8755 4690 C 8777 4701 8818 4723 8845 4740 C 8873 4756 8909 4776 8925 4784 C 8942 4792 8961 4808 8968 4819 C 8975 4831 8989 4840 9000 4840 C 9023 4840 9224 4953 9261 4986 C 9275 4999 9292 5010 9299 5010 C 9307 5010 9334 5023 9359 5038 C 9384 5054 9412 5069 9420 5073 C 9428 5077 9453 5091 9475 5105 C 9497 5119 9540 5144 9570 5161 C 9665 5213 9684 5224 9722 5247 C 9786 5286 9828 5273 9835 5213 C 9837 5198 9843 5158 9849 5125 C 9878 4972 9892 4890 9900 4834 C 9904 4800 9910 4768 9913 4763 C 9917 4757 9924 4724 9929 4689 C 9934 4654 9946 4585 9955 4535 C 9964 4486 9979 4398 9990 4340 C 10048 4011 10084 3918 10167 3883 C 10198 3871 10204 3871 10223 3884 C 10267 3914 10288 3936 10302 3965 C 10310 3982 10326 4013 10337 4035 C 10348 4057 10372 4136 10390 4210 C 10408 4284 10426 4352 10431 4361 C 10438 4376 10522 4698 10540 4780 C 10550 4828 10569 4902 10592 4985 C 10603 5024 10618 5080 10625 5110 C 10632 5140 10643 5181 10649 5200 C 10655 5219 10660 5249 10660 5265 C 10660 5282 10664 5300 10669 5306 C 10679 5315 10705 5402 10720 5476 C 10725 5498 10735 5534 10743 5556 C 10790 5686 10832 5856 10833 5915 C 10833 5980 10821 6001 10764 6039 C 10710 6074 10645 6080 10596 6055 z" stroke-linecap="round" />
</g>
		<g transform="matrix(0.13 0 0 -0.13 -162.07 345.8)"  >
<path style="stroke: none; stroke-width: 1; stroke-dasharray: none; stroke-linecap: butt; stroke-dashoffset: 0; stroke-linejoin: miter; stroke-miterlimit: 4; fill: rgb(0,0,0); fill-rule: nonzero; opacity: 1;" vector-effect="non-scaling-stroke"  transform=" translate(-5519.26, -3353.55)" d="M 2750 4655 C 2750 4646 2862 4516 2878 4506 C 2885 4502 2929 4461 2974 4416 C 3060 4330 3153 4244 3265 4145 C 3302 4112 3349 4069 3370 4050 C 3390 4031 3446 3981 3494 3940 C 3572 3873 3646 3808 3884 3596 C 3922 3563 3976 3514 4004 3489 C 4032 3464 4087 3417 4126 3384 C 4164 3352 4270 3258 4361 3176 C 4451 3095 4536 3021 4550 3012 C 4564 3003 4607 2967 4646 2931 C 4807 2783 4873 2724 4896 2709 C 4909 2701 4956 2661 4999 2621 C 5043 2582 5091 2539 5107 2527 C 5122 2515 5161 2481 5192 2451 C 5224 2422 5262 2388 5278 2376 C 5293 2365 5328 2333 5356 2307 C 5415 2248 5516 2175 5550 2165 C 5564 2161 5585 2152 5596 2144 C 5609 2136 5664 2129 5736 2125 C 5802 2122 5893 2117 5940 2115 C 5987 2113 6068 2108 6120 2105 C 6172 2103 6321 2098 6450 2095 C 6579 2092 6818 2083 6980 2075 C 7303 2059 7719 2048 8015 2046 C 8194 2045 8207 2047 8248 2068 C 8297 2094 8301 2107 8263 2115 C 8247 2118 8214 2127 8189 2135 C 8136 2150 7940 2166 7590 2181 C 7455 2187 7269 2196 7175 2200 C 7082 2205 6895 2209 6760 2210 C 6625 2211 6452 2215 6375 2220 C 6298 2225 6092 2234 5916 2240 L 5598 2251 L 5461 2373 C 5386 2441 5307 2511 5284 2530 C 5231 2575 4816 2939 4685 3055 C 4572 3155 4546 3178 4405 3300 C 4351 3347 4228 3454 4131 3538 C 4034 3622 3917 3723 3871 3763 C 3824 3803 3766 3853 3741 3876 C 3716 3898 3665 3941 3629 3971 C 3516 4065 3377 4181 3315 4235 C 3225 4314 2973 4515 2848 4609 C 2789 4654 2750 4672 2750 4655 z" stroke-linecap="round" />
</g>
</g>
</g>
</svg>